<mxfile host="app.diagrams.net" agent="Mozilla/5.0 (Windows NT 10.0; Win64; x64) AppleWebKit/537.36 (KHTML, like Gecko) Chrome/129.0.0.0 Safari/537.36" version="24.7.14">
  <diagram name="Page-1" id="2YBvvXClWsGukQMizWep">
    <mxGraphModel dx="2759" dy="949" grid="1" gridSize="10" guides="1" tooltips="1" connect="1" arrows="1" fold="1" page="1" pageScale="1" pageWidth="850" pageHeight="1100" math="0" shadow="0">
      <root>
        <mxCell id="0" />
        <mxCell id="1" parent="0" />
        <mxCell id="PukpmlLUlQeitPFJII0--1" value="Actor" style="shape=umlActor;verticalLabelPosition=bottom;verticalAlign=top;html=1;outlineConnect=0;" vertex="1" parent="1">
          <mxGeometry x="-425" y="710" width="30" height="60" as="geometry" />
        </mxCell>
        <mxCell id="PukpmlLUlQeitPFJII0--2" value="Actor" style="shape=umlActor;verticalLabelPosition=bottom;verticalAlign=top;html=1;outlineConnect=0;rotation=0;" vertex="1" parent="1">
          <mxGeometry x="-420" y="20" width="30" height="60" as="geometry" />
        </mxCell>
        <mxCell id="PukpmlLUlQeitPFJII0--5" value="Demander la liste des véhicules disponible" style="html=1;verticalAlign=bottom;endArrow=block;edgeStyle=elbowEdgeStyle;elbow=horizontal;curved=0;rounded=0;" edge="1" parent="1">
          <mxGeometry x="-0.3125" y="10" relative="1" as="geometry">
            <mxPoint x="-410" y="200" as="sourcePoint" />
            <Array as="points">
              <mxPoint x="-325" y="200" />
            </Array>
            <mxPoint x="-100" y="200" as="targetPoint" />
            <mxPoint as="offset" />
          </mxGeometry>
        </mxCell>
        <mxCell id="PukpmlLUlQeitPFJII0--6" value="Selectionner un véhicule à reserver" style="html=1;verticalAlign=bottom;endArrow=block;edgeStyle=elbowEdgeStyle;elbow=vertical;curved=0;rounded=0;" edge="1" parent="1">
          <mxGeometry relative="1" as="geometry">
            <mxPoint x="-410" y="330" as="sourcePoint" />
            <Array as="points">
              <mxPoint x="-160" y="330" />
            </Array>
            <mxPoint x="-90" y="330" as="targetPoint" />
          </mxGeometry>
        </mxCell>
        <mxCell id="PukpmlLUlQeitPFJII0--7" value="" style="endArrow=none;dashed=1;html=1;dashPattern=1 3;strokeWidth=2;rounded=0;" edge="1" parent="1">
          <mxGeometry width="50" height="50" relative="1" as="geometry">
            <mxPoint x="-410" y="700" as="sourcePoint" />
            <mxPoint x="-410" y="80" as="targetPoint" />
          </mxGeometry>
        </mxCell>
        <mxCell id="PukpmlLUlQeitPFJII0--8" value="Afficher les véhicules&amp;nbsp; disponibles" style="html=1;verticalAlign=bottom;endArrow=open;dashed=1;endSize=8;edgeStyle=elbowEdgeStyle;elbow=vertical;curved=0;rounded=0;" edge="1" parent="1">
          <mxGeometry relative="1" as="geometry">
            <mxPoint x="-410" y="300" as="targetPoint" />
            <Array as="points">
              <mxPoint x="-290" y="300" />
            </Array>
            <mxPoint x="-95" y="300" as="sourcePoint" />
          </mxGeometry>
        </mxCell>
        <mxCell id="PukpmlLUlQeitPFJII0--9" value="" style="endArrow=none;dashed=1;html=1;dashPattern=1 3;strokeWidth=2;rounded=0;entryX=0.473;entryY=0.167;entryDx=0;entryDy=0;entryPerimeter=0;exitX=0.473;exitY=0.183;exitDx=0;exitDy=0;exitPerimeter=0;" edge="1" parent="1" source="PukpmlLUlQeitPFJII0--26" target="PukpmlLUlQeitPFJII0--11">
          <mxGeometry width="50" height="50" relative="1" as="geometry">
            <mxPoint x="-100" y="721" as="sourcePoint" />
            <mxPoint x="-99.71000000000001" y="230" as="targetPoint" />
          </mxGeometry>
        </mxCell>
        <mxCell id="PukpmlLUlQeitPFJII0--11" value="Système de gestion de flotte" style="text;html=1;align=center;verticalAlign=middle;resizable=0;points=[];autosize=1;strokeColor=none;fillColor=none;" vertex="1" parent="1">
          <mxGeometry x="-180" y="60" width="170" height="30" as="geometry" />
        </mxCell>
        <mxCell id="PukpmlLUlQeitPFJII0--12" value="Confirmer la réservation" style="html=1;verticalAlign=bottom;endArrow=block;edgeStyle=elbowEdgeStyle;elbow=horizontal;curved=0;rounded=0;" edge="1" parent="1">
          <mxGeometry x="-0.3125" y="10" relative="1" as="geometry">
            <mxPoint x="-410" y="520" as="sourcePoint" />
            <Array as="points">
              <mxPoint x="-325" y="520" />
            </Array>
            <mxPoint x="-100" y="520" as="targetPoint" />
            <mxPoint as="offset" />
          </mxGeometry>
        </mxCell>
        <mxCell id="PukpmlLUlQeitPFJII0--13" value="Confirmation de la réservation" style="html=1;verticalAlign=bottom;endArrow=open;dashed=1;endSize=8;edgeStyle=elbowEdgeStyle;elbow=vertical;curved=0;rounded=0;" edge="1" parent="1">
          <mxGeometry relative="1" as="geometry">
            <mxPoint x="-400" y="680" as="targetPoint" />
            <Array as="points">
              <mxPoint x="-295" y="680" />
            </Array>
            <mxPoint x="-100" y="680" as="sourcePoint" />
          </mxGeometry>
        </mxCell>
        <mxCell id="PukpmlLUlQeitPFJII0--14" value="" style="endArrow=none;dashed=1;html=1;dashPattern=1 3;strokeWidth=2;rounded=0;" edge="1" parent="1" source="PukpmlLUlQeitPFJII0--19" target="PukpmlLUlQeitPFJII0--15">
          <mxGeometry width="50" height="50" relative="1" as="geometry">
            <mxPoint x="244" y="590" as="sourcePoint" />
            <mxPoint x="244.28999999999996" y="220" as="targetPoint" />
          </mxGeometry>
        </mxCell>
        <mxCell id="PukpmlLUlQeitPFJII0--15" value="" style="shape=cylinder3;whiteSpace=wrap;html=1;boundedLbl=1;backgroundOutline=1;size=15;" vertex="1" parent="1">
          <mxGeometry x="214.99999999999994" y="20" width="60" height="80" as="geometry" />
        </mxCell>
        <mxCell id="PukpmlLUlQeitPFJII0--16" value="Base de donnée des véhicules" style="text;html=1;align=center;verticalAlign=middle;resizable=0;points=[];autosize=1;strokeColor=none;fillColor=none;" vertex="1" parent="1">
          <mxGeometry x="150" y="90" width="190" height="30" as="geometry" />
        </mxCell>
        <mxCell id="PukpmlLUlQeitPFJII0--18" value="" style="shape=cylinder3;whiteSpace=wrap;html=1;boundedLbl=1;backgroundOutline=1;size=15;" vertex="1" parent="1">
          <mxGeometry x="214.99999999999994" y="700" width="60" height="80" as="geometry" />
        </mxCell>
        <mxCell id="PukpmlLUlQeitPFJII0--19" value="Base de donnée des véhicules" style="text;html=1;align=center;verticalAlign=middle;resizable=0;points=[];autosize=1;strokeColor=none;fillColor=none;" vertex="1" parent="1">
          <mxGeometry x="150" y="670" width="190" height="30" as="geometry" />
        </mxCell>
        <mxCell id="PukpmlLUlQeitPFJII0--20" value="Requête: Obtenir les véhicules disponibles" style="html=1;verticalAlign=bottom;endArrow=block;edgeStyle=elbowEdgeStyle;elbow=horizontal;curved=0;rounded=0;" edge="1" parent="1">
          <mxGeometry x="0.0288" relative="1" as="geometry">
            <mxPoint x="-110" y="220.09000000000003" as="sourcePoint" />
            <Array as="points">
              <mxPoint x="-25" y="220.09000000000003" />
            </Array>
            <mxPoint x="250" y="220" as="targetPoint" />
            <mxPoint as="offset" />
          </mxGeometry>
        </mxCell>
        <mxCell id="PukpmlLUlQeitPFJII0--21" value="Retourner la liste des véhicules" style="html=1;verticalAlign=bottom;endArrow=open;dashed=1;endSize=8;edgeStyle=elbowEdgeStyle;elbow=vertical;curved=0;rounded=0;" edge="1" parent="1">
          <mxGeometry relative="1" as="geometry">
            <mxPoint x="-100" y="260" as="targetPoint" />
            <Array as="points">
              <mxPoint x="20" y="260" />
            </Array>
            <mxPoint x="240" y="260" as="sourcePoint" />
          </mxGeometry>
        </mxCell>
        <mxCell id="PukpmlLUlQeitPFJII0--24" value="Enregistrer la réservation de véhicule" style="html=1;verticalAlign=bottom;endArrow=block;edgeStyle=elbowEdgeStyle;elbow=horizontal;curved=0;rounded=0;" edge="1" parent="1">
          <mxGeometry x="-0.2118" relative="1" as="geometry">
            <mxPoint x="-110" y="560" as="sourcePoint" />
            <Array as="points">
              <mxPoint x="-5" y="547.09" />
            </Array>
            <mxPoint x="240" y="560" as="targetPoint" />
            <mxPoint x="-1" as="offset" />
          </mxGeometry>
        </mxCell>
        <mxCell id="PukpmlLUlQeitPFJII0--25" value="Réservation enrégistrée" style="html=1;verticalAlign=bottom;endArrow=open;dashed=1;endSize=8;edgeStyle=elbowEdgeStyle;elbow=vertical;curved=0;rounded=0;" edge="1" parent="1">
          <mxGeometry relative="1" as="geometry">
            <mxPoint x="-100" y="620" as="targetPoint" />
            <Array as="points">
              <mxPoint x="25" y="620" />
            </Array>
            <mxPoint x="245" y="620" as="sourcePoint" />
          </mxGeometry>
        </mxCell>
        <mxCell id="PukpmlLUlQeitPFJII0--26" value="Système de gestion de flotte" style="text;html=1;align=center;verticalAlign=middle;resizable=0;points=[];autosize=1;strokeColor=none;fillColor=none;" vertex="1" parent="1">
          <mxGeometry x="-180" y="725" width="170" height="30" as="geometry" />
        </mxCell>
        <mxCell id="PukpmlLUlQeitPFJII0--27" value="" style="endArrow=none;html=1;rounded=0;" edge="1" parent="1" target="PukpmlLUlQeitPFJII0--31">
          <mxGeometry width="50" height="50" relative="1" as="geometry">
            <mxPoint x="-425" y="450" as="sourcePoint" />
            <mxPoint x="-100" y="450" as="targetPoint" />
          </mxGeometry>
        </mxCell>
        <mxCell id="PukpmlLUlQeitPFJII0--28" value="" style="endArrow=none;html=1;rounded=0;" edge="1" parent="1">
          <mxGeometry width="50" height="50" relative="1" as="geometry">
            <mxPoint x="-430" y="460" as="sourcePoint" />
            <mxPoint x="-100" y="460" as="targetPoint" />
          </mxGeometry>
        </mxCell>
        <mxCell id="PukpmlLUlQeitPFJII0--29" value="" style="endArrow=none;html=1;rounded=0;" edge="1" parent="1">
          <mxGeometry width="50" height="50" relative="1" as="geometry">
            <mxPoint x="40" y="460" as="sourcePoint" />
            <mxPoint x="240" y="460" as="targetPoint" />
          </mxGeometry>
        </mxCell>
        <mxCell id="PukpmlLUlQeitPFJII0--30" value="" style="endArrow=none;html=1;rounded=0;" edge="1" parent="1">
          <mxGeometry width="50" height="50" relative="1" as="geometry">
            <mxPoint x="40" y="450" as="sourcePoint" />
            <mxPoint x="240" y="450" as="targetPoint" />
          </mxGeometry>
        </mxCell>
        <mxCell id="PukpmlLUlQeitPFJII0--31" value="Validation de la réservation" style="rounded=0;whiteSpace=wrap;html=1;" vertex="1" parent="1">
          <mxGeometry x="-160" y="420" width="200" height="60" as="geometry" />
        </mxCell>
        <mxCell id="PukpmlLUlQeitPFJII0--34" value="Retourner la liste des véhicules" style="html=1;verticalAlign=bottom;endArrow=open;dashed=1;endSize=8;edgeStyle=elbowEdgeStyle;elbow=vertical;curved=0;rounded=0;" edge="1" parent="1">
          <mxGeometry x="-0.0588" relative="1" as="geometry">
            <mxPoint x="-100" y="390" as="targetPoint" />
            <Array as="points">
              <mxPoint x="20" y="390" />
            </Array>
            <mxPoint x="240" y="390" as="sourcePoint" />
            <mxPoint as="offset" />
          </mxGeometry>
        </mxCell>
        <mxCell id="PukpmlLUlQeitPFJII0--35" value="Requête: Vérifier la disponibilité du véhicule" style="html=1;verticalAlign=bottom;endArrow=block;edgeStyle=elbowEdgeStyle;elbow=horizontal;curved=0;rounded=0;" edge="1" parent="1">
          <mxGeometry x="0.0288" relative="1" as="geometry">
            <mxPoint x="-100" y="359.18" as="sourcePoint" />
            <Array as="points">
              <mxPoint x="-15" y="359.18" />
            </Array>
            <mxPoint x="250" y="359" as="targetPoint" />
            <mxPoint as="offset" />
          </mxGeometry>
        </mxCell>
        <mxCell id="PukpmlLUlQeitPFJII0--36" value="" style="endArrow=none;html=1;rounded=0;" edge="1" parent="1">
          <mxGeometry width="50" height="50" relative="1" as="geometry">
            <mxPoint x="-425" y="120" as="sourcePoint" />
            <mxPoint x="-160" y="120" as="targetPoint" />
          </mxGeometry>
        </mxCell>
        <mxCell id="PukpmlLUlQeitPFJII0--37" value="" style="endArrow=none;html=1;rounded=0;" edge="1" parent="1">
          <mxGeometry width="50" height="50" relative="1" as="geometry">
            <mxPoint x="40" y="130" as="sourcePoint" />
            <mxPoint x="240" y="130" as="targetPoint" />
          </mxGeometry>
        </mxCell>
        <mxCell id="PukpmlLUlQeitPFJII0--38" value="" style="endArrow=none;html=1;rounded=0;" edge="1" parent="1">
          <mxGeometry width="50" height="50" relative="1" as="geometry">
            <mxPoint x="40" y="120" as="sourcePoint" />
            <mxPoint x="240" y="120" as="targetPoint" />
          </mxGeometry>
        </mxCell>
        <mxCell id="PukpmlLUlQeitPFJII0--39" value="" style="endArrow=none;html=1;rounded=0;" edge="1" parent="1">
          <mxGeometry width="50" height="50" relative="1" as="geometry">
            <mxPoint x="-420" y="130" as="sourcePoint" />
            <mxPoint x="-160" y="130" as="targetPoint" />
          </mxGeometry>
        </mxCell>
        <mxCell id="PukpmlLUlQeitPFJII0--40" value="Validation de la réservation" style="rounded=0;whiteSpace=wrap;html=1;" vertex="1" parent="1">
          <mxGeometry x="-160" y="100" width="200" height="60" as="geometry" />
        </mxCell>
      </root>
    </mxGraphModel>
  </diagram>
</mxfile>
